<svg width="173" height="173" viewBox="0 0 173 173" fill="none" xmlns="http://www.w3.org/2000/svg">
<path d="M14.4167 17.3V40.3667C14.4167 41.959 15.7077 43.25 17.3 43.25H40.3667C41.959 43.25 43.25 41.959 43.25 40.3667V17.3C43.25 15.7077 41.959 14.4167 40.3667 14.4167H17.3C15.7077 14.4167 14.4167 15.7077 14.4167 17.3ZM20.1833 20.1834H37.4833V37.4833H20.1833V20.1834Z" fill="black"/>
<path d="M132.633 43.25H155.7C157.292 43.25 158.583 41.959 158.583 40.3667V17.3C158.583 15.7077 157.292 14.4167 155.7 14.4167H132.633C131.041 14.4167 129.75 15.7077 129.75 17.3V40.3667C129.75 41.959 131.041 43.25 132.633 43.25ZM135.517 20.1834H152.817V37.4833H135.517V20.1834Z" fill="black"/>
<path d="M40.3667 129.75H17.3C15.7077 129.75 14.4167 131.041 14.4167 132.633V155.7C14.4167 157.292 15.7077 158.583 17.3 158.583H40.3667C41.959 158.583 43.25 157.292 43.25 155.7V132.633C43.25 131.041 41.959 129.75 40.3667 129.75ZM37.4833 152.817H20.1833V135.517H37.4833V152.817Z" fill="black"/>
<path d="M31.7167 25.95H25.95V31.7167H31.7167V25.95Z" fill="black"/>
<path d="M5.76667 5.76667H28.8333V0H2.88333C1.29101 0 0 1.29101 0 2.88333V28.8333H5.76667V5.76667Z" fill="black"/>
<path d="M5.76667 144.167H0V170.117C0 171.709 1.29101 173 2.88333 173H28.8333V167.233H5.76667V144.167Z" fill="black"/>
<path d="M170.117 0H144.167V5.76667H167.233V28.8333H173V2.88333C173 1.29101 171.709 0 170.117 0Z" fill="black"/>
<path d="M167.233 167.233H149.933V173H170.117C171.709 173 173 171.709 173 170.117V144.167H167.233V167.233Z" fill="black"/>
<path d="M147.05 25.95H141.283V31.7167H147.05V25.95Z" fill="black"/>
<path d="M31.7167 141.283H25.95V147.05H31.7167V141.283Z" fill="black"/>
<path d="M54.7833 25.95H49.0167V31.7167H54.7833V25.95Z" fill="black"/>
<path d="M95.15 25.95H89.3833V31.7167H95.15V25.95Z" fill="black"/>
<path d="M100.917 25.95V37.4833H112.45V31.7167H106.683V25.95H100.917Z" fill="black"/>
<path d="M60.55 25.95V31.7167H66.3167V25.95V20.1834H112.45V25.95H118.217V20.1834V14.4167H54.7833V20.1834H60.55V25.95Z" fill="black"/>
<path d="M54.7833 37.4833H49.0167V49.0167H54.7833V37.4833Z" fill="black"/>
<path d="M60.55 49.0167H54.7833V54.7833H60.55V49.0167Z" fill="black"/>
<path d="M60.55 37.4833V43.25H66.3167V49.0167H77.85V37.4833H80.7333V31.7167H83.6167V25.95H72.0833V31.7167H74.9667V37.4833H60.55Z" fill="black"/>
<path d="M89.3833 43.25H83.6167V49.0167H89.3833V43.25Z" fill="black"/>
<path d="M115.333 72.0833H121.1V66.3167H126.867V60.55H115.333V72.0833Z" fill="black"/>
<path d="M95.15 37.4833H89.3833V43.25H95.15V37.4833Z" fill="black"/>
<path d="M72.0833 135.517V129.75H66.3167V123.983H60.55V135.517H72.0833Z" fill="black"/>
<path d="M123.983 31.7167H118.217V37.4833H123.983V31.7167Z" fill="black"/>
<path d="M126.867 43.25H115.333V54.7833H126.867V43.25Z" fill="black"/>
<path d="M14.4167 118.217H20.1833V95.15H25.95V89.3833H14.4167V118.217Z" fill="black"/>
<path d="M43.25 49.0167H14.4167V54.7833H43.25V49.0167Z" fill="black"/>
<path d="M25.95 60.55H14.4167V77.85H20.1833V72.0833H25.95V60.55Z" fill="black"/>
<path d="M72.0833 89.3833V83.6167H77.85V72.0833H83.6167V66.3167H89.3833V60.55H83.6167V54.7833H77.85V60.55V66.3167H72.0833V60.55H60.55V72.0833H66.3167V89.3833H72.0833Z" fill="black"/>
<path d="M49.0167 158.583H54.7833V152.817H63.4333V158.583H69.2V152.817H72.0833V147.05H54.7833V141.283H49.0167V158.583Z" fill="black"/>
<path d="M109.567 98.0333V92.2667H115.333V86.5H121.1V74.9667H103.8V86.5H98.0333V92.2667H103.8V98.0333H109.567Z" fill="black"/>
<path d="M100.917 63.4334H106.683V57.6667H100.917V51.9H95.15V69.2H100.917V63.4334Z" fill="black"/>
<path d="M43.25 60.55H31.7167V66.3167H43.25V60.55Z" fill="black"/>
<path d="M54.7833 60.55H49.0167V66.3167H54.7833V60.55Z" fill="black"/>
<path d="M37.4833 89.3833H31.7167V95.15H37.4833V89.3833Z" fill="black"/>
<path d="M54.7833 95.15H49.0167V100.917H54.7833V95.15Z" fill="black"/>
<path d="M60.55 89.3833H54.7833V95.15H60.55V89.3833Z" fill="black"/>
<path d="M60.55 135.517H54.7833V141.283H60.55V135.517Z" fill="black"/>
<path d="M31.7167 77.85H25.95V83.6166H31.7167V77.85Z" fill="black"/>
<path d="M43.25 72.0834H31.7167V77.85H43.25V72.0834Z" fill="black"/>
<path d="M49.0167 77.85H43.25V83.6166H49.0167V77.85Z" fill="black"/>
<path d="M95.15 74.9667H89.3833V80.7333H95.15V74.9667Z" fill="black"/>
<path d="M89.3833 80.7333H83.6167V86.5H89.3833V80.7333Z" fill="black"/>
<path d="M98.0333 95.15H92.2667V100.917H98.0333V95.15Z" fill="black"/>
<path d="M141.283 89.3833H129.75V95.15H141.283V89.3833Z" fill="black"/>
<path d="M147.05 95.15H141.283V100.917H147.05V95.15Z" fill="black"/>
<path d="M86.5 95.15H80.7333V100.917H86.5V95.15Z" fill="black"/>
<path d="M77.85 95.15H66.3167V100.917H60.55V106.683H72.0833V100.917H77.85V95.15Z" fill="black"/>
<path d="M83.6167 152.817H77.85V158.583H89.3833V152.817H95.15V147.05H83.6167V152.817Z" fill="black"/>
<path d="M112.45 147.05V152.817H106.683V158.583H118.217V152.817H123.983V147.05H112.45Z" fill="black"/>
<path d="M138.4 60.55V54.7833H144.167V49.0167H132.633V54.7833H126.867V60.55H138.4Z" fill="black"/>
<path d="M92.2667 115.333H86.5V121.1H92.2667V115.333Z" fill="black"/>
<path d="M92.2667 126.867H86.5V132.633H92.2667V126.867Z" fill="black"/>
<path d="M83.6167 141.283H77.85V147.05H83.6167V141.283Z" fill="black"/>
<path d="M80.7333 115.333V109.567H74.9667V115.333V121.1H80.7333V115.333Z" fill="black"/>
<path d="M98.0333 132.633H92.2667V138.4H98.0333V132.633Z" fill="black"/>
<path d="M135.517 152.817H123.983V158.583H141.283V147.05H135.517V152.817Z" fill="black"/>
<path d="M141.283 135.517H135.517V141.283H141.283V135.517Z" fill="black"/>
<path d="M129.75 135.517H123.983V141.283H129.75V135.517Z" fill="black"/>
<path d="M118.217 135.517H112.45V141.283H118.217V135.517Z" fill="black"/>
<path d="M123.983 129.75H118.217V135.517H123.983V129.75Z" fill="black"/>
<path d="M106.683 147.05H100.917V152.817H106.683V147.05Z" fill="black"/>
<path d="M54.7833 83.6167H49.0167V89.3834H54.7833V83.6167Z" fill="black"/>
<path d="M152.817 158.583H158.583V141.283H147.05V147.05H152.817V158.583Z" fill="black"/>
<path d="M152.817 129.75H147.05V135.517H152.817V129.75Z" fill="black"/>
<path d="M158.583 106.683H152.817V118.217H147.05V123.983H158.583V106.683Z" fill="black"/>
<path d="M158.583 95.15H152.817V100.917H158.583V95.15Z" fill="black"/>
<path d="M158.583 49.0167H152.817V74.9667H141.283V69.2H129.75V80.7333H152.817V89.3833H158.583V49.0167Z" fill="black"/>
<path d="M115.333 126.867V115.333H109.567V103.8H92.2667V115.333H98.0333V126.867H115.333Z" fill="black"/>
<path d="M49.0167 100.917H25.95V123.983H37.4833V118.217H31.7167V112.45H43.25V129.75H49.0167V123.983H60.55V118.217H54.7833V112.45H60.55V106.683H49.0167V100.917Z" fill="black"/>
<path d="M147.05 106.683H135.517V100.917H123.983V112.45H129.75V129.75H135.517V123.983H141.283V112.45H147.05V106.683Z" fill="black"/>
</svg>
