<svg width="214" height="214" viewBox="0 0 214 214" fill="none" xmlns="http://www.w3.org/2000/svg">
<circle cx="107" cy="107" r="107" fill="#010101"/>
<g clip-path="url(#clip0)">
<path d="M106.971 97.3184C100.579 97.3184 95.3783 102.502 95.3783 108.87C95.3783 115.241 100.579 120.427 106.971 120.427C113.366 120.427 118.567 115.241 118.567 108.87C118.567 102.502 113.365 97.3184 106.971 97.3184Z" fill="white"/>
<path d="M135.257 81.5789C127.709 74.0354 117.663 69.8792 106.971 69.8792C96.3214 69.8792 86.3022 74.008 78.7566 81.504C75.7091 84.5367 75.7038 89.4778 78.744 92.5158C80.2208 93.9947 82.1871 94.807 84.28 94.807C86.3633 94.807 88.3222 93.999 89.797 92.5327C94.3888 87.9693 100.488 85.4555 106.971 85.4555C113.479 85.4555 119.595 87.9851 124.19 92.5759C125.667 94.0507 127.632 94.865 129.723 94.865C131.808 94.865 133.766 94.057 135.242 92.5907C138.294 89.5577 138.299 84.619 135.257 81.5789Z" fill="white"/>
<path d="M171.592 45.3637C154.336 28.1505 131.385 18.6735 106.971 18.6735C82.5901 18.6735 59.6623 28.1284 42.412 45.3007C39.3644 48.3334 39.3623 53.2745 42.4078 56.3125C43.8835 57.7841 45.8466 58.5931 47.9353 58.5931C50.0229 58.5931 51.9839 57.7872 53.4597 56.3167C67.7585 42.0843 86.7621 34.2445 106.971 34.2445C127.21 34.2445 146.233 42.1002 160.535 56.3705C162.011 57.8431 163.977 58.6554 166.064 58.6554C168.151 58.6554 170.112 57.8452 171.587 56.3768C174.635 53.3417 174.638 48.3988 171.592 45.3637Z" fill="white"/>
<path d="M152.964 63.9253C140.681 51.6708 124.347 44.9228 106.971 44.9228C89.6271 44.9228 73.3177 51.6497 61.0453 63.8609C59.5674 65.3304 58.7541 67.2851 58.7509 69.3663C58.7509 71.4455 59.5611 73.4023 61.0368 74.8738C62.5126 76.3464 64.4768 77.1587 66.5654 77.1587C68.6509 77.1587 70.6119 76.3486 72.0898 74.8823C81.4128 65.6068 93.8013 60.4969 106.971 60.4969C120.169 60.4969 132.574 65.6247 141.904 74.9319C143.381 76.4066 145.345 77.2188 147.434 77.2188C149.521 77.2188 151.483 76.4087 152.957 74.9403C154.432 73.4709 155.248 71.5162 155.249 69.4349C155.251 67.3536 154.439 65.3989 152.964 63.9253Z" fill="white"/>
</g>
<path d="M92.7547 138.237L83.1247 169.417H76.5763L70.7127 150.092C70.5986 149.793 70.4916 149.465 70.3917 149.108C70.2919 148.737 70.192 148.352 70.0921 147.952C69.9923 148.352 69.8924 148.737 69.7925 149.108C69.6927 149.465 69.5857 149.793 69.4715 150.092L63.5223 169.417H56.9739L47.3439 138.237H53.4215C54.0493 138.237 54.57 138.38 54.9837 138.665C55.4117 138.95 55.6899 139.328 55.8183 139.799L60.0983 156.063C60.2267 156.577 60.3551 157.14 60.4835 157.754C60.6119 158.353 60.7403 158.981 60.8687 159.637C61.1255 158.296 61.4394 157.105 61.8103 156.063L66.8607 139.799C66.9891 139.4 67.2602 139.043 67.6739 138.729C68.1019 138.401 68.6155 138.237 69.2147 138.237H71.3547C71.9825 138.237 72.4889 138.387 72.8741 138.686C73.2593 138.972 73.5518 139.343 73.7515 139.799L78.7591 156.063C79.1301 157.062 79.4439 158.196 79.7007 159.466C79.8149 158.824 79.929 158.224 80.0431 157.668C80.1715 157.097 80.2999 156.562 80.4283 156.063L84.7083 139.799C84.8225 139.385 85.0935 139.022 85.5215 138.708C85.9495 138.394 86.4631 138.237 87.0623 138.237H92.7547Z" fill="white"/>
<path d="M103.737 147.225V169.417H97.1029V147.225H103.737ZM104.422 141.147C104.422 141.675 104.315 142.174 104.101 142.645C103.887 143.102 103.594 143.508 103.223 143.865C102.852 144.207 102.417 144.486 101.918 144.7C101.433 144.899 100.912 144.999 100.356 144.999C99.8136 144.999 99.3071 144.899 98.8363 144.7C98.3655 144.486 97.9447 144.207 97.5737 143.865C97.2171 143.508 96.9317 143.102 96.7178 142.645C96.518 142.174 96.4182 141.675 96.4182 141.147C96.4182 140.605 96.518 140.099 96.7178 139.628C96.9317 139.157 97.2171 138.743 97.5737 138.387C97.9447 138.03 98.3655 137.752 98.8363 137.552C99.3071 137.352 99.8136 137.252 100.356 137.252C100.912 137.252 101.433 137.352 101.918 137.552C102.417 137.752 102.852 138.03 103.223 138.387C103.594 138.743 103.887 139.157 104.101 139.628C104.315 140.099 104.422 140.605 104.422 141.147Z" fill="white"/>
<path d="M110.482 153.73H122.038V159.08H110.482V153.73Z" fill="white"/>
<path d="M136.698 143.801V151.697H147.355V157.283H136.698V169.417H129.422V138.237H149.495V143.801H136.698Z" fill="white"/>
<path d="M161.818 147.225V169.417H155.184V147.225H161.818ZM162.503 141.147C162.503 141.675 162.396 142.174 162.182 142.645C161.968 143.102 161.675 143.508 161.304 143.865C160.933 144.207 160.498 144.486 159.999 144.7C159.514 144.899 158.993 144.999 158.437 144.999C157.895 144.999 157.388 144.899 156.917 144.7C156.446 144.486 156.026 144.207 155.655 143.865C155.298 143.508 155.013 143.102 154.799 142.645C154.599 142.174 154.499 141.675 154.499 141.147C154.499 140.605 154.599 140.099 154.799 139.628C155.013 139.157 155.298 138.743 155.655 138.387C156.026 138.03 156.446 137.752 156.917 137.552C157.388 137.352 157.895 137.252 158.437 137.252C158.993 137.252 159.514 137.352 159.999 137.552C160.498 137.752 160.933 138.03 161.304 138.387C161.675 138.743 161.968 139.157 162.182 139.628C162.396 140.099 162.503 140.605 162.503 141.147Z" fill="white"/>
<defs>
<clipPath id="clip0">
<rect width="133.75" height="133.75" fill="white" transform="translate(40.125 2.675)"/>
</clipPath>
</defs>
</svg>
